<?xml version="1.0" encoding="utf-8" standalone="no"?>
<!DOCTYPE svg PUBLIC "-//W3C//DTD SVG 1.1//EN"
  "http://www.w3.org/Graphics/SVG/1.1/DTD/svg11.dtd">
<svg xmlns:xlink="http://www.w3.org/1999/xlink" width="576pt" height="288pt" viewBox="0 0 576 288" xmlns="http://www.w3.org/2000/svg" version="1.1">
 <metadata>
  <rdf:RDF xmlns:dc="http://purl.org/dc/elements/1.1/" xmlns:cc="http://creativecommons.org/ns#" xmlns:rdf="http://www.w3.org/1999/02/22-rdf-syntax-ns#">
   <cc:Work>
    <dc:type rdf:resource="http://purl.org/dc/dcmitype/StillImage"/>
    <dc:date>2026-07-20T03:38:05.663302</dc:date>
    <dc:format>image/svg+xml</dc:format>
    <dc:creator>
     <cc:Agent>
      <dc:title>Matplotlib v3.6.3, https://matplotlib.org/</dc:title>
     </cc:Agent>
    </dc:creator>
   </cc:Work>
  </rdf:RDF>
 </metadata>
 <defs>
  <style type="text/css">*{stroke-linejoin: round; stroke-linecap: butt}</style>
 </defs>
 <g id="figure_1">
  <g id="patch_1">
   <path d="M 0 288 
L 576 288 
L 576 0 
L 0 0 
z
" style="fill: #ffffff"/>
  </g>
  <g id="axes_1">
   <g id="patch_2">
    <path d="M 42.765865 268.321635 
L 572.99976 268.321635 
L 572.99976 3.00024 
L 42.765865 3.00024 
z
" style="fill: #ffffff"/>
   </g>
   <g id="matplotlib.axis_1">
    <g id="xtick_1">
     <g id="line2d_1">
      <defs>
       <path id="m062b8f4746" d="M 0 0 
L 0 3.5 
" style="stroke: #000000; stroke-width: 0.8"/>
      </defs>
      <g>
       <use xlink:href="#m062b8f4746" x="66.867406" y="268.321635" style="stroke: #000000; stroke-width: 0.8"/>
      </g>
     </g>
     <g id="text_1">
      <!-- 2024-10-28 -->
      <g transform="translate(37.809593 282.920073) scale(0.1 -0.1)">
       <defs>
        <path id="DejaVuSans-32" d="M 1228 531 
L 3431 531 
L 3431 0 
L 469 0 
L 469 531 
Q 828 903 1448 1529 
Q 2069 2156 2228 2338 
Q 2531 2678 2651 2914 
Q 2772 3150 2772 3378 
Q 2772 3750 2511 3984 
Q 2250 4219 1831 4219 
Q 1534 4219 1204 4116 
Q 875 4013 500 3803 
L 500 4441 
Q 881 4594 1212 4672 
Q 1544 4750 1819 4750 
Q 2544 4750 2975 4387 
Q 3406 4025 3406 3419 
Q 3406 3131 3298 2873 
Q 3191 2616 2906 2266 
Q 2828 2175 2409 1742 
Q 1991 1309 1228 531 
z
" transform="scale(0.015625)"/>
        <path id="DejaVuSans-30" d="M 2034 4250 
Q 1547 4250 1301 3770 
Q 1056 3291 1056 2328 
Q 1056 1369 1301 889 
Q 1547 409 2034 409 
Q 2525 409 2770 889 
Q 3016 1369 3016 2328 
Q 3016 3291 2770 3770 
Q 2525 4250 2034 4250 
z
M 2034 4750 
Q 2819 4750 3233 4129 
Q 3647 3509 3647 2328 
Q 3647 1150 3233 529 
Q 2819 -91 2034 -91 
Q 1250 -91 836 529 
Q 422 1150 422 2328 
Q 422 3509 836 4129 
Q 1250 4750 2034 4750 
z
" transform="scale(0.015625)"/>
        <path id="DejaVuSans-34" d="M 2419 4116 
L 825 1625 
L 2419 1625 
L 2419 4116 
z
M 2253 4666 
L 3047 4666 
L 3047 1625 
L 3713 1625 
L 3713 1100 
L 3047 1100 
L 3047 0 
L 2419 0 
L 2419 1100 
L 313 1100 
L 313 1709 
L 2253 4666 
z
" transform="scale(0.015625)"/>
        <path id="DejaVuSans-2d" d="M 313 2009 
L 1997 2009 
L 1997 1497 
L 313 1497 
L 313 2009 
z
" transform="scale(0.015625)"/>
        <path id="DejaVuSans-31" d="M 794 531 
L 1825 531 
L 1825 4091 
L 703 3866 
L 703 4441 
L 1819 4666 
L 2450 4666 
L 2450 531 
L 3481 531 
L 3481 0 
L 794 0 
L 794 531 
z
" transform="scale(0.015625)"/>
        <path id="DejaVuSans-38" d="M 2034 2216 
Q 1584 2216 1326 1975 
Q 1069 1734 1069 1313 
Q 1069 891 1326 650 
Q 1584 409 2034 409 
Q 2484 409 2743 651 
Q 3003 894 3003 1313 
Q 3003 1734 2745 1975 
Q 2488 2216 2034 2216 
z
M 1403 2484 
Q 997 2584 770 2862 
Q 544 3141 544 3541 
Q 544 4100 942 4425 
Q 1341 4750 2034 4750 
Q 2731 4750 3128 4425 
Q 3525 4100 3525 3541 
Q 3525 3141 3298 2862 
Q 3072 2584 2669 2484 
Q 3125 2378 3379 2068 
Q 3634 1759 3634 1313 
Q 3634 634 3220 271 
Q 2806 -91 2034 -91 
Q 1263 -91 848 271 
Q 434 634 434 1313 
Q 434 1759 690 2068 
Q 947 2378 1403 2484 
z
M 1172 3481 
Q 1172 3119 1398 2916 
Q 1625 2713 2034 2713 
Q 2441 2713 2670 2916 
Q 2900 3119 2900 3481 
Q 2900 3844 2670 4047 
Q 2441 4250 2034 4250 
Q 1625 4250 1398 4047 
Q 1172 3844 1172 3481 
z
" transform="scale(0.015625)"/>
       </defs>
       <use xlink:href="#DejaVuSans-32"/>
       <use xlink:href="#DejaVuSans-30" x="63.623047"/>
       <use xlink:href="#DejaVuSans-32" x="127.246094"/>
       <use xlink:href="#DejaVuSans-34" x="190.869141"/>
       <use xlink:href="#DejaVuSans-2d" x="254.492188"/>
       <use xlink:href="#DejaVuSans-31" x="290.576172"/>
       <use xlink:href="#DejaVuSans-30" x="354.199219"/>
       <use xlink:href="#DejaVuSans-2d" x="417.822266"/>
       <use xlink:href="#DejaVuSans-32" x="453.90625"/>
       <use xlink:href="#DejaVuSans-38" x="517.529297"/>
      </g>
     </g>
    </g>
    <g id="xtick_2">
     <g id="line2d_2">
      <g>
       <use xlink:href="#m062b8f4746" x="172.808244" y="268.321635" style="stroke: #000000; stroke-width: 0.8"/>
      </g>
     </g>
     <g id="text_2">
      <!-- 2025-03-10 -->
      <g transform="translate(143.750431 282.920073) scale(0.1 -0.1)">
       <defs>
        <path id="DejaVuSans-35" d="M 691 4666 
L 3169 4666 
L 3169 4134 
L 1269 4134 
L 1269 2991 
Q 1406 3038 1543 3061 
Q 1681 3084 1819 3084 
Q 2600 3084 3056 2656 
Q 3513 2228 3513 1497 
Q 3513 744 3044 326 
Q 2575 -91 1722 -91 
Q 1428 -91 1123 -41 
Q 819 9 494 109 
L 494 744 
Q 775 591 1075 516 
Q 1375 441 1709 441 
Q 2250 441 2565 725 
Q 2881 1009 2881 1497 
Q 2881 1984 2565 2268 
Q 2250 2553 1709 2553 
Q 1456 2553 1204 2497 
Q 953 2441 691 2322 
L 691 4666 
z
" transform="scale(0.015625)"/>
        <path id="DejaVuSans-33" d="M 2597 2516 
Q 3050 2419 3304 2112 
Q 3559 1806 3559 1356 
Q 3559 666 3084 287 
Q 2609 -91 1734 -91 
Q 1441 -91 1130 -33 
Q 819 25 488 141 
L 488 750 
Q 750 597 1062 519 
Q 1375 441 1716 441 
Q 2309 441 2620 675 
Q 2931 909 2931 1356 
Q 2931 1769 2642 2001 
Q 2353 2234 1838 2234 
L 1294 2234 
L 1294 2753 
L 1863 2753 
Q 2328 2753 2575 2939 
Q 2822 3125 2822 3475 
Q 2822 3834 2567 4026 
Q 2313 4219 1838 4219 
Q 1578 4219 1281 4162 
Q 984 4106 628 3988 
L 628 4550 
Q 988 4650 1302 4700 
Q 1616 4750 1894 4750 
Q 2613 4750 3031 4423 
Q 3450 4097 3450 3541 
Q 3450 3153 3228 2886 
Q 3006 2619 2597 2516 
z
" transform="scale(0.015625)"/>
       </defs>
       <use xlink:href="#DejaVuSans-32"/>
       <use xlink:href="#DejaVuSans-30" x="63.623047"/>
       <use xlink:href="#DejaVuSans-32" x="127.246094"/>
       <use xlink:href="#DejaVuSans-35" x="190.869141"/>
       <use xlink:href="#DejaVuSans-2d" x="254.492188"/>
       <use xlink:href="#DejaVuSans-30" x="290.576172"/>
       <use xlink:href="#DejaVuSans-33" x="354.199219"/>
       <use xlink:href="#DejaVuSans-2d" x="417.822266"/>
       <use xlink:href="#DejaVuSans-31" x="453.90625"/>
       <use xlink:href="#DejaVuSans-30" x="517.529297"/>
      </g>
     </g>
    </g>
    <g id="xtick_3">
     <g id="line2d_3">
      <g>
       <use xlink:href="#m062b8f4746" x="278.749082" y="268.321635" style="stroke: #000000; stroke-width: 0.8"/>
      </g>
     </g>
     <g id="text_3">
      <!-- 2025-08-04 -->
      <g transform="translate(249.69127 282.920073) scale(0.1 -0.1)">
       <use xlink:href="#DejaVuSans-32"/>
       <use xlink:href="#DejaVuSans-30" x="63.623047"/>
       <use xlink:href="#DejaVuSans-32" x="127.246094"/>
       <use xlink:href="#DejaVuSans-35" x="190.869141"/>
       <use xlink:href="#DejaVuSans-2d" x="254.492188"/>
       <use xlink:href="#DejaVuSans-30" x="290.576172"/>
       <use xlink:href="#DejaVuSans-38" x="354.199219"/>
       <use xlink:href="#DejaVuSans-2d" x="417.822266"/>
       <use xlink:href="#DejaVuSans-30" x="453.90625"/>
       <use xlink:href="#DejaVuSans-34" x="517.529297"/>
      </g>
     </g>
    </g>
    <g id="xtick_4">
     <g id="line2d_4">
      <g>
       <use xlink:href="#m062b8f4746" x="384.68992" y="268.321635" style="stroke: #000000; stroke-width: 0.8"/>
      </g>
     </g>
     <g id="text_4">
      <!-- 2025-12-22 -->
      <g transform="translate(355.632108 282.920073) scale(0.1 -0.1)">
       <use xlink:href="#DejaVuSans-32"/>
       <use xlink:href="#DejaVuSans-30" x="63.623047"/>
       <use xlink:href="#DejaVuSans-32" x="127.246094"/>
       <use xlink:href="#DejaVuSans-35" x="190.869141"/>
       <use xlink:href="#DejaVuSans-2d" x="254.492188"/>
       <use xlink:href="#DejaVuSans-31" x="290.576172"/>
       <use xlink:href="#DejaVuSans-32" x="354.199219"/>
       <use xlink:href="#DejaVuSans-2d" x="417.822266"/>
       <use xlink:href="#DejaVuSans-32" x="453.90625"/>
       <use xlink:href="#DejaVuSans-32" x="517.529297"/>
      </g>
     </g>
    </g>
    <g id="xtick_5">
     <g id="line2d_5">
      <g>
       <use xlink:href="#m062b8f4746" x="490.630758" y="268.321635" style="stroke: #000000; stroke-width: 0.8"/>
      </g>
     </g>
     <g id="text_5">
      <!-- 2026-05-11 -->
      <g transform="translate(461.572946 282.920073) scale(0.1 -0.1)">
       <defs>
        <path id="DejaVuSans-36" d="M 2113 2584 
Q 1688 2584 1439 2293 
Q 1191 2003 1191 1497 
Q 1191 994 1439 701 
Q 1688 409 2113 409 
Q 2538 409 2786 701 
Q 3034 994 3034 1497 
Q 3034 2003 2786 2293 
Q 2538 2584 2113 2584 
z
M 3366 4563 
L 3366 3988 
Q 3128 4100 2886 4159 
Q 2644 4219 2406 4219 
Q 1781 4219 1451 3797 
Q 1122 3375 1075 2522 
Q 1259 2794 1537 2939 
Q 1816 3084 2150 3084 
Q 2853 3084 3261 2657 
Q 3669 2231 3669 1497 
Q 3669 778 3244 343 
Q 2819 -91 2113 -91 
Q 1303 -91 875 529 
Q 447 1150 447 2328 
Q 447 3434 972 4092 
Q 1497 4750 2381 4750 
Q 2619 4750 2861 4703 
Q 3103 4656 3366 4563 
z
" transform="scale(0.015625)"/>
       </defs>
       <use xlink:href="#DejaVuSans-32"/>
       <use xlink:href="#DejaVuSans-30" x="63.623047"/>
       <use xlink:href="#DejaVuSans-32" x="127.246094"/>
       <use xlink:href="#DejaVuSans-36" x="190.869141"/>
       <use xlink:href="#DejaVuSans-2d" x="254.492188"/>
       <use xlink:href="#DejaVuSans-30" x="290.576172"/>
       <use xlink:href="#DejaVuSans-35" x="354.199219"/>
       <use xlink:href="#DejaVuSans-2d" x="417.822266"/>
       <use xlink:href="#DejaVuSans-31" x="453.90625"/>
       <use xlink:href="#DejaVuSans-31" x="517.529297"/>
      </g>
     </g>
    </g>
   </g>
   <g id="matplotlib.axis_2">
    <g id="ytick_1">
     <g id="line2d_6">
      <defs>
       <path id="mc93189e908" d="M 0 0 
L -3.5 0 
" style="stroke: #000000; stroke-width: 0.8"/>
      </defs>
      <g>
       <use xlink:href="#mc93189e908" x="42.765865" y="256.261572" style="stroke: #000000; stroke-width: 0.8"/>
      </g>
     </g>
     <g id="text_6">
      <!-- 0 -->
      <g transform="translate(29.403365 260.06079) scale(0.1 -0.1)">
       <use xlink:href="#DejaVuSans-30"/>
      </g>
     </g>
    </g>
    <g id="ytick_2">
     <g id="line2d_7">
      <g>
       <use xlink:href="#mc93189e908" x="42.765865" y="15.060303" style="stroke: #000000; stroke-width: 0.8"/>
      </g>
     </g>
     <g id="text_7">
      <!-- 100 -->
      <g transform="translate(16.678365 18.859522) scale(0.1 -0.1)">
       <use xlink:href="#DejaVuSans-31"/>
       <use xlink:href="#DejaVuSans-30" x="63.623047"/>
       <use xlink:href="#DejaVuSans-30" x="127.246094"/>
      </g>
     </g>
    </g>
    <g id="text_8">
     <!-- RPKI enabled route -->
     <g transform="translate(10.598677 183.413281) rotate(-90) scale(0.1 -0.1)">
      <defs>
       <path id="DejaVuSans-52" d="M 2841 2188 
Q 3044 2119 3236 1894 
Q 3428 1669 3622 1275 
L 4263 0 
L 3584 0 
L 2988 1197 
Q 2756 1666 2539 1819 
Q 2322 1972 1947 1972 
L 1259 1972 
L 1259 0 
L 628 0 
L 628 4666 
L 2053 4666 
Q 2853 4666 3247 4331 
Q 3641 3997 3641 3322 
Q 3641 2881 3436 2590 
Q 3231 2300 2841 2188 
z
M 1259 4147 
L 1259 2491 
L 2053 2491 
Q 2509 2491 2742 2702 
Q 2975 2913 2975 3322 
Q 2975 3731 2742 3939 
Q 2509 4147 2053 4147 
L 1259 4147 
z
" transform="scale(0.015625)"/>
       <path id="DejaVuSans-50" d="M 1259 4147 
L 1259 2394 
L 2053 2394 
Q 2494 2394 2734 2622 
Q 2975 2850 2975 3272 
Q 2975 3691 2734 3919 
Q 2494 4147 2053 4147 
L 1259 4147 
z
M 628 4666 
L 2053 4666 
Q 2838 4666 3239 4311 
Q 3641 3956 3641 3272 
Q 3641 2581 3239 2228 
Q 2838 1875 2053 1875 
L 1259 1875 
L 1259 0 
L 628 0 
L 628 4666 
z
" transform="scale(0.015625)"/>
       <path id="DejaVuSans-4b" d="M 628 4666 
L 1259 4666 
L 1259 2694 
L 3353 4666 
L 4166 4666 
L 1850 2491 
L 4331 0 
L 3500 0 
L 1259 2247 
L 1259 0 
L 628 0 
L 628 4666 
z
" transform="scale(0.015625)"/>
       <path id="DejaVuSans-49" d="M 628 4666 
L 1259 4666 
L 1259 0 
L 628 0 
L 628 4666 
z
" transform="scale(0.015625)"/>
       <path id="DejaVuSans-20" transform="scale(0.015625)"/>
       <path id="DejaVuSans-65" d="M 3597 1894 
L 3597 1613 
L 953 1613 
Q 991 1019 1311 708 
Q 1631 397 2203 397 
Q 2534 397 2845 478 
Q 3156 559 3463 722 
L 3463 178 
Q 3153 47 2828 -22 
Q 2503 -91 2169 -91 
Q 1331 -91 842 396 
Q 353 884 353 1716 
Q 353 2575 817 3079 
Q 1281 3584 2069 3584 
Q 2775 3584 3186 3129 
Q 3597 2675 3597 1894 
z
M 3022 2063 
Q 3016 2534 2758 2815 
Q 2500 3097 2075 3097 
Q 1594 3097 1305 2825 
Q 1016 2553 972 2059 
L 3022 2063 
z
" transform="scale(0.015625)"/>
       <path id="DejaVuSans-6e" d="M 3513 2113 
L 3513 0 
L 2938 0 
L 2938 2094 
Q 2938 2591 2744 2837 
Q 2550 3084 2163 3084 
Q 1697 3084 1428 2787 
Q 1159 2491 1159 1978 
L 1159 0 
L 581 0 
L 581 3500 
L 1159 3500 
L 1159 2956 
Q 1366 3272 1645 3428 
Q 1925 3584 2291 3584 
Q 2894 3584 3203 3211 
Q 3513 2838 3513 2113 
z
" transform="scale(0.015625)"/>
       <path id="DejaVuSans-61" d="M 2194 1759 
Q 1497 1759 1228 1600 
Q 959 1441 959 1056 
Q 959 750 1161 570 
Q 1363 391 1709 391 
Q 2188 391 2477 730 
Q 2766 1069 2766 1631 
L 2766 1759 
L 2194 1759 
z
M 3341 1997 
L 3341 0 
L 2766 0 
L 2766 531 
Q 2569 213 2275 61 
Q 1981 -91 1556 -91 
Q 1019 -91 701 211 
Q 384 513 384 1019 
Q 384 1609 779 1909 
Q 1175 2209 1959 2209 
L 2766 2209 
L 2766 2266 
Q 2766 2663 2505 2880 
Q 2244 3097 1772 3097 
Q 1472 3097 1187 3025 
Q 903 2953 641 2809 
L 641 3341 
Q 956 3463 1253 3523 
Q 1550 3584 1831 3584 
Q 2591 3584 2966 3190 
Q 3341 2797 3341 1997 
z
" transform="scale(0.015625)"/>
       <path id="DejaVuSans-62" d="M 3116 1747 
Q 3116 2381 2855 2742 
Q 2594 3103 2138 3103 
Q 1681 3103 1420 2742 
Q 1159 2381 1159 1747 
Q 1159 1113 1420 752 
Q 1681 391 2138 391 
Q 2594 391 2855 752 
Q 3116 1113 3116 1747 
z
M 1159 2969 
Q 1341 3281 1617 3432 
Q 1894 3584 2278 3584 
Q 2916 3584 3314 3078 
Q 3713 2572 3713 1747 
Q 3713 922 3314 415 
Q 2916 -91 2278 -91 
Q 1894 -91 1617 61 
Q 1341 213 1159 525 
L 1159 0 
L 581 0 
L 581 4863 
L 1159 4863 
L 1159 2969 
z
" transform="scale(0.015625)"/>
       <path id="DejaVuSans-6c" d="M 603 4863 
L 1178 4863 
L 1178 0 
L 603 0 
L 603 4863 
z
" transform="scale(0.015625)"/>
       <path id="DejaVuSans-64" d="M 2906 2969 
L 2906 4863 
L 3481 4863 
L 3481 0 
L 2906 0 
L 2906 525 
Q 2725 213 2448 61 
Q 2172 -91 1784 -91 
Q 1150 -91 751 415 
Q 353 922 353 1747 
Q 353 2572 751 3078 
Q 1150 3584 1784 3584 
Q 2172 3584 2448 3432 
Q 2725 3281 2906 2969 
z
M 947 1747 
Q 947 1113 1208 752 
Q 1469 391 1925 391 
Q 2381 391 2643 752 
Q 2906 1113 2906 1747 
Q 2906 2381 2643 2742 
Q 2381 3103 1925 3103 
Q 1469 3103 1208 2742 
Q 947 2381 947 1747 
z
" transform="scale(0.015625)"/>
       <path id="DejaVuSans-72" d="M 2631 2963 
Q 2534 3019 2420 3045 
Q 2306 3072 2169 3072 
Q 1681 3072 1420 2755 
Q 1159 2438 1159 1844 
L 1159 0 
L 581 0 
L 581 3500 
L 1159 3500 
L 1159 2956 
Q 1341 3275 1631 3429 
Q 1922 3584 2338 3584 
Q 2397 3584 2469 3576 
Q 2541 3569 2628 3553 
L 2631 2963 
z
" transform="scale(0.015625)"/>
       <path id="DejaVuSans-6f" d="M 1959 3097 
Q 1497 3097 1228 2736 
Q 959 2375 959 1747 
Q 959 1119 1226 758 
Q 1494 397 1959 397 
Q 2419 397 2687 759 
Q 2956 1122 2956 1747 
Q 2956 2369 2687 2733 
Q 2419 3097 1959 3097 
z
M 1959 3584 
Q 2709 3584 3137 3096 
Q 3566 2609 3566 1747 
Q 3566 888 3137 398 
Q 2709 -91 1959 -91 
Q 1206 -91 779 398 
Q 353 888 353 1747 
Q 353 2609 779 3096 
Q 1206 3584 1959 3584 
z
" transform="scale(0.015625)"/>
       <path id="DejaVuSans-75" d="M 544 1381 
L 544 3500 
L 1119 3500 
L 1119 1403 
Q 1119 906 1312 657 
Q 1506 409 1894 409 
Q 2359 409 2629 706 
Q 2900 1003 2900 1516 
L 2900 3500 
L 3475 3500 
L 3475 0 
L 2900 0 
L 2900 538 
Q 2691 219 2414 64 
Q 2138 -91 1772 -91 
Q 1169 -91 856 284 
Q 544 659 544 1381 
z
M 1991 3584 
L 1991 3584 
z
" transform="scale(0.015625)"/>
       <path id="DejaVuSans-74" d="M 1172 4494 
L 1172 3500 
L 2356 3500 
L 2356 3053 
L 1172 3053 
L 1172 1153 
Q 1172 725 1289 603 
Q 1406 481 1766 481 
L 2356 481 
L 2356 0 
L 1766 0 
Q 1100 0 847 248 
Q 594 497 594 1153 
L 594 3053 
L 172 3053 
L 172 3500 
L 594 3500 
L 594 4494 
L 1172 4494 
z
" transform="scale(0.015625)"/>
      </defs>
      <use xlink:href="#DejaVuSans-52"/>
      <use xlink:href="#DejaVuSans-50" x="69.482422"/>
      <use xlink:href="#DejaVuSans-4b" x="129.785156"/>
      <use xlink:href="#DejaVuSans-49" x="195.361328"/>
      <use xlink:href="#DejaVuSans-20" x="224.853516"/>
      <use xlink:href="#DejaVuSans-65" x="256.640625"/>
      <use xlink:href="#DejaVuSans-6e" x="318.164062"/>
      <use xlink:href="#DejaVuSans-61" x="381.542969"/>
      <use xlink:href="#DejaVuSans-62" x="442.822266"/>
      <use xlink:href="#DejaVuSans-6c" x="506.298828"/>
      <use xlink:href="#DejaVuSans-65" x="534.082031"/>
      <use xlink:href="#DejaVuSans-64" x="595.605469"/>
      <use xlink:href="#DejaVuSans-20" x="659.082031"/>
      <use xlink:href="#DejaVuSans-72" x="690.869141"/>
      <use xlink:href="#DejaVuSans-6f" x="729.732422"/>
      <use xlink:href="#DejaVuSans-75" x="790.914062"/>
      <use xlink:href="#DejaVuSans-74" x="854.292969"/>
      <use xlink:href="#DejaVuSans-65" x="893.501953"/>
     </g>
    </g>
   </g>
   <g id="line2d_8">
    <path d="M 66.867406 256.261572 
L 125.134867 256.261572 
L 125.134867 256.261572 
L 130.431909 249.425908 
L 130.431909 249.425908 
L 135.72895 168.017205 
L 135.72895 168.017205 
L 146.323034 168.017205 
L 146.323034 168.017205 
L 151.620076 167.777411 
L 151.620076 167.777411 
L 188.69937 167.777411 
L 188.69937 167.777411 
L 193.996411 170.738684 
L 193.996411 170.738684 
L 246.966831 170.738684 
L 246.966831 170.738684 
L 252.263872 170.501121 
L 252.263872 170.501121 
L 533.007094 170.501121 
L 533.007094 170.501121 
L 538.304136 170.738684 
L 538.304136 170.738684 
L 548.898219 170.738684 
L 548.898219 170.738684 
" clip-path="url(#p55e023c66c)" style="fill: none; stroke: #1f77b4; stroke-width: 1.5; stroke-linecap: square"/>
   </g>
   <g id="line2d_9">
    <path d="M 66.867406 256.261572 
L 231.075705 256.261572 
L 231.075705 256.261572 
L 241.669789 254.53253 
L 241.669789 254.53253 
L 246.966831 122.84712 
L 246.966831 122.84712 
L 257.560914 122.84712 
L 257.560914 122.84712 
L 262.857956 120.863314 
L 262.857956 120.863314 
L 305.234292 120.863314 
L 305.234292 120.863314 
L 310.531333 35.591307 
L 310.531333 35.591307 
L 315.828375 34.549835 
L 315.828375 34.549835 
L 321.125417 32.427906 
L 321.125417 32.427906 
L 342.313585 32.427906 
L 342.313585 32.427906 
L 347.610627 32.259481 
L 347.610627 32.259481 
L 352.907669 32.259481 
L 352.907669 32.259481 
L 358.204711 32.554627 
L 358.204711 32.554627 
L 363.501753 28.934209 
L 363.501753 28.934209 
L 368.798794 28.09821 
L 368.798794 28.09821 
L 548.898219 28.092436 
L 548.898219 28.092436 
" clip-path="url(#p55e023c66c)" style="fill: none; stroke: #ff7f0e; stroke-width: 1.5; stroke-linecap: square"/>
   </g>
   <g id="line2d_10">
    <path d="M 66.867406 256.261572 
L 172.808244 256.261572 
L 172.808244 256.261572 
L 178.105286 251.271201 
L 178.105286 251.271201 
L 183.402328 240.393067 
L 183.402328 240.393067 
L 188.69937 240.496783 
L 188.69937 240.496783 
L 193.996411 224.101402 
L 193.996411 224.101402 
L 368.798794 224.101402 
L 368.798794 224.101402 
L 374.095836 224.295138 
L 374.095836 224.295138 
L 517.115968 224.295138 
L 517.115968 224.295138 
L 522.41301 223.905304 
L 522.41301 223.905304 
L 548.898219 223.905304 
L 548.898219 223.905304 
" clip-path="url(#p55e023c66c)" style="fill: none; stroke: #2ca02c; stroke-width: 1.5; stroke-linecap: square"/>
   </g>
   <g id="line2d_11">
    <path d="M 66.867406 79.380642 
L 548.898219 79.380642 
L 548.898219 79.380642 
" clip-path="url(#p55e023c66c)" style="fill: none; stroke: #d62728; stroke-width: 1.5; stroke-linecap: square"/>
   </g>
   <g id="line2d_12">
    <path d="M 66.867406 255.965982 
L 220.481621 255.966344 
L 220.481621 255.966344 
L 225.778663 255.183029 
L 225.778663 255.183029 
L 231.075705 254.114958 
L 231.075705 254.114958 
L 241.669789 254.111479 
L 241.669789 254.111479 
L 246.966831 254.57762 
L 246.966831 254.57762 
L 252.263872 253.992603 
L 252.263872 253.992603 
L 257.560914 254.481488 
L 257.560914 254.481488 
L 262.857956 254.481488 
L 262.857956 254.481488 
L 268.154998 254.090365 
L 268.154998 254.090365 
L 273.45204 254.482218 
L 273.45204 254.482218 
L 278.749082 254.677977 
L 278.749082 254.677977 
L 315.828375 254.774511 
L 315.828375 254.774511 
L 326.422459 255.271419 
L 326.422459 255.271419 
L 331.719501 254.974373 
L 331.719501 254.974373 
L 342.313585 254.974373 
L 342.313585 254.974373 
L 347.610627 255.368968 
L 347.610627 255.368968 
L 352.907669 254.974373 
L 352.907669 254.974373 
L 368.798794 254.869643 
L 368.798794 254.869643 
L 374.095836 254.057508 
L 374.095836 254.057508 
L 379.392878 253.583683 
L 379.392878 253.583683 
L 389.986962 253.584744 
L 389.986962 253.584744 
L 395.284004 247.056126 
L 395.284004 247.056126 
L 400.581046 248.230867 
L 400.581046 248.230867 
L 405.878088 248.224644 
L 405.878088 248.224644 
L 411.17513 247.324743 
L 411.17513 247.324743 
L 416.472172 247.338519 
L 416.472172 247.338519 
L 421.769214 245.122124 
L 421.769214 245.122124 
L 427.066255 246.188415 
L 427.066255 246.188415 
L 432.363297 246.277004 
L 432.363297 246.277004 
L 437.660339 246.188415 
L 437.660339 246.188415 
L 442.957381 246.72829 
L 442.957381 246.72829 
L 448.254423 247.617364 
L 448.254423 247.617364 
L 453.551465 247.886528 
L 453.551465 247.886528 
L 464.145549 247.973188 
L 464.145549 247.973188 
L 474.739633 247.995529 
L 474.739633 247.995529 
L 480.036675 247.733318 
L 480.036675 247.733318 
L 485.333716 248.261838 
L 485.333716 248.261838 
L 490.630758 247.009509 
L 490.630758 247.009509 
L 495.9278 246.476905 
L 495.9278 246.476905 
L 501.224842 245.590577 
L 501.224842 245.590577 
L 506.521884 245.938858 
L 506.521884 245.938858 
L 511.818926 246.46941 
L 511.818926 246.46941 
L 517.115968 245.822758 
L 517.115968 245.822758 
L 527.710052 245.734411 
L 527.710052 245.734411 
L 548.898219 245.646131 
L 548.898219 245.646131 
" clip-path="url(#p55e023c66c)" style="fill: none; stroke: #9467bd; stroke-width: 1.5; stroke-linecap: square"/>
   </g>
   <g id="line2d_13">
    <path d="M 66.867406 256.261572 
L 299.93725 256.261572 
L 299.93725 256.261572 
L 310.531333 251.018066 
L 310.531333 251.018066 
L 321.125417 251.074448 
L 321.125417 251.074448 
L 384.68992 251.074448 
L 384.68992 251.074448 
L 389.986962 239.03291 
L 389.986962 239.03291 
L 395.284004 226.111413 
L 395.284004 226.111413 
L 400.581046 164.375374 
L 400.581046 164.375374 
L 405.878088 155.761043 
L 405.878088 155.761043 
L 411.17513 156.66879 
L 411.17513 156.66879 
L 416.472172 145.71099 
L 416.472172 145.71099 
L 421.769214 139.867936 
L 421.769214 139.867936 
L 427.066255 141.205794 
L 427.066255 141.205794 
L 432.363297 141.934959 
L 432.363297 141.934959 
L 437.660339 148.238918 
L 437.660339 148.238918 
L 442.957381 150.072334 
L 442.957381 150.072334 
L 453.551465 150.072334 
L 453.551465 150.072334 
L 458.848507 150.926841 
L 458.848507 150.926841 
L 464.145549 150.072334 
L 464.145549 150.072334 
L 469.442591 152.668719 
L 469.442591 152.668719 
L 474.739633 150.926841 
L 474.739633 150.926841 
L 485.333716 150.926841 
L 485.333716 150.926841 
L 490.630758 147.572111 
L 490.630758 147.572111 
L 501.224842 147.572111 
L 501.224842 147.572111 
L 506.521884 148.395166 
L 506.521884 148.395166 
L 511.818926 148.395166 
L 511.818926 148.395166 
L 517.115968 147.038356 
L 517.115968 147.038356 
L 522.41301 147.038356 
L 522.41301 147.038356 
L 533.007094 148.719605 
L 533.007094 148.719605 
L 538.304136 147.721001 
L 538.304136 147.721001 
L 543.601177 147.721001 
L 543.601177 147.721001 
L 543.601177 147.038356 
L 543.601177 147.038356 
L 548.898219 147.038356 
L 548.898219 147.038356 
" clip-path="url(#p55e023c66c)" style="fill: none; stroke: #8c564b; stroke-width: 1.5; stroke-linecap: square"/>
   </g>
   <g id="line2d_14">
    <path d="M 66.867406 63.300557 
L 368.798794 63.300557 
L 368.798794 63.300557 
L 374.095836 67.084106 
L 374.095836 67.084106 
L 548.898219 67.084106 
L 548.898219 67.084106 
" clip-path="url(#p55e023c66c)" style="fill: none; stroke: #e377c2; stroke-width: 1.5; stroke-linecap: square"/>
   </g>
   <g id="line2d_15">
    <path d="M 66.867406 246.613521 
L 125.134867 246.613521 
L 125.134867 246.613521 
L 130.431909 246.445241 
L 130.431909 246.445241 
L 151.620076 246.445241 
L 151.620076 246.445241 
L 156.917118 246.894532 
L 156.917118 246.894532 
L 167.511202 246.912685 
L 167.511202 246.912685 
L 178.105286 247.020144 
L 178.105286 247.020144 
L 215.184579 247.037814 
L 215.184579 247.037814 
L 225.778663 247.037814 
L 225.778663 247.037814 
L 231.075705 247.410149 
L 231.075705 247.410149 
L 252.263872 247.442512 
L 252.263872 247.442512 
L 326.422459 247.42636 
L 326.422459 247.42636 
L 331.719501 247.85272 
L 331.719501 247.85272 
L 464.145549 247.759115 
L 464.145549 247.759115 
L 469.442591 248.191641 
L 469.442591 248.191641 
L 548.898219 248.236391 
L 548.898219 248.236391 
" clip-path="url(#p55e023c66c)" style="fill: none; stroke: #7f7f7f; stroke-width: 1.5; stroke-linecap: square"/>
   </g>
   <g id="line2d_16">
    <path d="M 66.867406 256.261572 
L 156.917118 256.261572 
L 156.917118 256.261572 
L 162.21416 242.861501 
L 162.21416 242.861501 
L 167.511202 15.060303 
L 167.511202 15.060303 
L 548.898219 15.060303 
L 548.898219 15.060303 
" clip-path="url(#p55e023c66c)" style="fill: none; stroke: #bcbd22; stroke-width: 1.5; stroke-linecap: square"/>
   </g>
   <g id="line2d_17">
    <path d="M 66.867406 245.927619 
L 72.164448 246.036365 
L 72.164448 246.036365 
L 77.461489 245.061325 
L 77.461489 245.061325 
L 103.946699 245.164048 
L 103.946699 245.164048 
L 114.540783 245.488595 
L 114.540783 245.488595 
L 119.837825 245.488595 
L 119.837825 245.488595 
L 125.134867 246.254164 
L 125.134867 246.254164 
L 130.431909 245.948928 
L 130.431909 245.948928 
L 135.72895 244.207304 
L 135.72895 244.207304 
L 141.025992 243.432946 
L 141.025992 243.432946 
L 146.323034 243.432946 
L 146.323034 243.432946 
L 151.620076 241.58773 
L 151.620076 241.58773 
L 156.917118 243.29874 
L 156.917118 243.29874 
L 167.511202 243.304957 
L 167.511202 243.304957 
L 172.808244 249.3735 
L 172.808244 249.3735 
L 178.105286 249.251288 
L 178.105286 249.251288 
L 183.402328 249.247833 
L 183.402328 249.247833 
L 188.69937 247.870935 
L 188.69937 247.870935 
L 193.996411 247.301994 
L 193.996411 247.301994 
L 199.293453 247.328191 
L 199.293453 247.328191 
L 204.590495 245.84074 
L 204.590495 245.84074 
L 209.887537 245.957828 
L 209.887537 245.957828 
L 215.184579 245.84074 
L 215.184579 245.84074 
L 220.481621 245.952824 
L 220.481621 245.952824 
L 225.778663 245.932758 
L 225.778663 245.932758 
L 231.075705 247.960643 
L 231.075705 247.960643 
L 236.372747 250.390304 
L 236.372747 250.390304 
L 241.669789 250.475634 
L 241.669789 250.475634 
L 268.154998 250.293705 
L 268.154998 250.293705 
L 273.45204 251.145559 
L 273.45204 251.145559 
L 278.749082 251.635109 
L 278.749082 251.635109 
L 289.343166 251.682584 
L 289.343166 251.682584 
L 294.640208 251.19795 
L 294.640208 251.19795 
L 299.93725 248.327319 
L 299.93725 248.327319 
L 305.234292 248.188913 
L 305.234292 248.188913 
L 310.531333 246.886257 
L 310.531333 246.886257 
L 315.828375 246.881522 
L 315.828375 246.881522 
L 321.125417 246.759703 
L 321.125417 246.759703 
L 326.422459 246.414141 
L 326.422459 246.414141 
L 331.719501 244.983684 
L 331.719501 244.983684 
L 337.016543 244.839446 
L 337.016543 244.839446 
L 342.313585 245.042908 
L 342.313585 245.042908 
L 347.610627 245.422403 
L 347.610627 245.422403 
L 352.907669 245.308701 
L 352.907669 245.308701 
L 358.204711 245.308701 
L 358.204711 245.308701 
L 363.501753 244.498554 
L 363.501753 244.498554 
L 368.798794 244.047348 
L 368.798794 244.047348 
L 374.095836 244.84376 
L 374.095836 244.84376 
L 384.68992 245.319043 
L 384.68992 245.319043 
L 389.986962 245.162255 
L 389.986962 245.162255 
L 395.284004 245.162255 
L 395.284004 245.162255 
L 400.581046 244.713436 
L 400.581046 244.713436 
L 405.878088 245.167745 
L 405.878088 245.167745 
L 411.17513 245.287033 
L 411.17513 245.287033 
L 416.472172 244.368018 
L 416.472172 244.368018 
L 421.769214 244.821195 
L 421.769214 244.821195 
L 427.066255 244.826845 
L 427.066255 244.826845 
L 432.363297 244.035326 
L 432.363297 244.035326 
L 442.957381 243.124505 
L 442.957381 243.124505 
L 448.254423 243.348537 
L 448.254423 243.348537 
L 453.551465 242.468537 
L 453.551465 242.468537 
L 458.848507 242.121781 
L 458.848507 242.121781 
L 469.442591 242.441519 
L 469.442591 242.441519 
L 474.739633 242.212159 
L 474.739633 242.212159 
L 480.036675 242.107952 
L 480.036675 242.107952 
L 485.333716 242.412695 
L 485.333716 242.412695 
L 490.630758 241.754956 
L 490.630758 241.754956 
L 495.9278 241.517655 
L 495.9278 241.517655 
L 501.224842 240.158317 
L 501.224842 240.158317 
L 506.521884 240.026871 
L 506.521884 240.026871 
L 511.818926 240.197008 
L 511.818926 240.197008 
L 522.41301 238.983212 
L 522.41301 238.983212 
L 527.710052 239.090919 
L 527.710052 239.090919 
L 533.007094 237.388953 
L 533.007094 237.388953 
L 538.304136 237.530839 
L 538.304136 237.530839 
L 548.898219 237.636879 
L 548.898219 237.636879 
" clip-path="url(#p55e023c66c)" style="fill: none; stroke: #17becf; stroke-width: 1.5; stroke-linecap: square"/>
   </g>
   <g id="line2d_18">
    <path d="M 66.867406 256.261572 
L 495.9278 256.261572 
L 495.9278 256.261572 
L 501.224842 236.161466 
L 501.224842 236.161466 
L 511.818926 236.161466 
L 511.818926 236.161466 
L 517.115968 127.620895 
L 517.115968 127.620895 
L 548.898219 127.620895 
L 548.898219 127.620895 
" clip-path="url(#p55e023c66c)" style="fill: none; stroke: #1f77b4; stroke-width: 1.5; stroke-linecap: square"/>
   </g>
   <g id="patch_3">
    <path d="M 42.765865 268.321635 
L 42.765865 3.00024 
" style="fill: none; stroke: #000000; stroke-width: 0.8; stroke-linejoin: miter; stroke-linecap: square"/>
   </g>
   <g id="patch_4">
    <path d="M 572.99976 268.321635 
L 572.99976 3.00024 
" style="fill: none; stroke: #000000; stroke-width: 0.8; stroke-linejoin: miter; stroke-linecap: square"/>
   </g>
   <g id="patch_5">
    <path d="M 42.765865 268.321635 
L 572.99976 268.321635 
" style="fill: none; stroke: #000000; stroke-width: 0.8; stroke-linejoin: miter; stroke-linecap: square"/>
   </g>
   <g id="patch_6">
    <path d="M 42.765865 3.00024 
L 572.99976 3.00024 
" style="fill: none; stroke: #000000; stroke-width: 0.8; stroke-linejoin: miter; stroke-linecap: square"/>
   </g>
   <g id="legend_1">
    <g id="patch_7">
     <path d="M 488.998198 172.459615 
L 565.99976 172.459615 
Q 567.99976 172.459615 567.99976 170.459615 
L 567.99976 10.00024 
Q 567.99976 8.00024 565.99976 8.00024 
L 488.998198 8.00024 
Q 486.998198 8.00024 486.998198 10.00024 
L 486.998198 170.459615 
Q 486.998198 172.459615 488.998198 172.459615 
z
" style="fill: #ffffff; opacity: 0.8; stroke: #cccccc; stroke-linejoin: miter"/>
    </g>
    <g id="line2d_19">
     <path d="M 490.998198 16.098677 
L 500.998198 16.098677 
L 510.998198 16.098677 
" style="fill: none; stroke: #1f77b4; stroke-width: 1.5; stroke-linecap: square"/>
    </g>
    <g id="text_9">
     <!-- AS38661 -->
     <g transform="translate(518.998198 19.598677) scale(0.1 -0.1)">
      <defs>
       <path id="DejaVuSans-41" d="M 2188 4044 
L 1331 1722 
L 3047 1722 
L 2188 4044 
z
M 1831 4666 
L 2547 4666 
L 4325 0 
L 3669 0 
L 3244 1197 
L 1141 1197 
L 716 0 
L 50 0 
L 1831 4666 
z
" transform="scale(0.015625)"/>
       <path id="DejaVuSans-53" d="M 3425 4513 
L 3425 3897 
Q 3066 4069 2747 4153 
Q 2428 4238 2131 4238 
Q 1616 4238 1336 4038 
Q 1056 3838 1056 3469 
Q 1056 3159 1242 3001 
Q 1428 2844 1947 2747 
L 2328 2669 
Q 3034 2534 3370 2195 
Q 3706 1856 3706 1288 
Q 3706 609 3251 259 
Q 2797 -91 1919 -91 
Q 1588 -91 1214 -16 
Q 841 59 441 206 
L 441 856 
Q 825 641 1194 531 
Q 1563 422 1919 422 
Q 2459 422 2753 634 
Q 3047 847 3047 1241 
Q 3047 1584 2836 1778 
Q 2625 1972 2144 2069 
L 1759 2144 
Q 1053 2284 737 2584 
Q 422 2884 422 3419 
Q 422 4038 858 4394 
Q 1294 4750 2059 4750 
Q 2388 4750 2728 4690 
Q 3069 4631 3425 4513 
z
" transform="scale(0.015625)"/>
      </defs>
      <use xlink:href="#DejaVuSans-41"/>
      <use xlink:href="#DejaVuSans-53" x="68.408203"/>
      <use xlink:href="#DejaVuSans-33" x="131.884766"/>
      <use xlink:href="#DejaVuSans-38" x="195.507812"/>
      <use xlink:href="#DejaVuSans-36" x="259.130859"/>
      <use xlink:href="#DejaVuSans-36" x="322.753906"/>
      <use xlink:href="#DejaVuSans-31" x="386.376953"/>
     </g>
    </g>
    <g id="line2d_20">
     <path d="M 490.998198 30.776802 
L 500.998198 30.776802 
L 510.998198 30.776802 
" style="fill: none; stroke: #ff7f0e; stroke-width: 1.5; stroke-linecap: square"/>
    </g>
    <g id="text_10">
     <!-- AS1237 -->
     <g transform="translate(518.998198 34.276802) scale(0.1 -0.1)">
      <defs>
       <path id="DejaVuSans-37" d="M 525 4666 
L 3525 4666 
L 3525 4397 
L 1831 0 
L 1172 0 
L 2766 4134 
L 525 4134 
L 525 4666 
z
" transform="scale(0.015625)"/>
      </defs>
      <use xlink:href="#DejaVuSans-41"/>
      <use xlink:href="#DejaVuSans-53" x="68.408203"/>
      <use xlink:href="#DejaVuSans-31" x="131.884766"/>
      <use xlink:href="#DejaVuSans-32" x="195.507812"/>
      <use xlink:href="#DejaVuSans-33" x="259.130859"/>
      <use xlink:href="#DejaVuSans-37" x="322.753906"/>
     </g>
    </g>
    <g id="line2d_21">
     <path d="M 490.998198 45.454927 
L 500.998198 45.454927 
L 510.998198 45.454927 
" style="fill: none; stroke: #2ca02c; stroke-width: 1.5; stroke-linecap: square"/>
    </g>
    <g id="text_11">
     <!-- AS18305 -->
     <g transform="translate(518.998198 48.954927) scale(0.1 -0.1)">
      <use xlink:href="#DejaVuSans-41"/>
      <use xlink:href="#DejaVuSans-53" x="68.408203"/>
      <use xlink:href="#DejaVuSans-31" x="131.884766"/>
      <use xlink:href="#DejaVuSans-38" x="195.507812"/>
      <use xlink:href="#DejaVuSans-33" x="259.130859"/>
      <use xlink:href="#DejaVuSans-30" x="322.753906"/>
      <use xlink:href="#DejaVuSans-35" x="386.376953"/>
     </g>
    </g>
    <g id="line2d_22">
     <path d="M 490.998198 60.133052 
L 500.998198 60.133052 
L 510.998198 60.133052 
" style="fill: none; stroke: #d62728; stroke-width: 1.5; stroke-linecap: square"/>
    </g>
    <g id="text_12">
     <!-- AS9976 -->
     <g transform="translate(518.998198 63.633052) scale(0.1 -0.1)">
      <defs>
       <path id="DejaVuSans-39" d="M 703 97 
L 703 672 
Q 941 559 1184 500 
Q 1428 441 1663 441 
Q 2288 441 2617 861 
Q 2947 1281 2994 2138 
Q 2813 1869 2534 1725 
Q 2256 1581 1919 1581 
Q 1219 1581 811 2004 
Q 403 2428 403 3163 
Q 403 3881 828 4315 
Q 1253 4750 1959 4750 
Q 2769 4750 3195 4129 
Q 3622 3509 3622 2328 
Q 3622 1225 3098 567 
Q 2575 -91 1691 -91 
Q 1453 -91 1209 -44 
Q 966 3 703 97 
z
M 1959 2075 
Q 2384 2075 2632 2365 
Q 2881 2656 2881 3163 
Q 2881 3666 2632 3958 
Q 2384 4250 1959 4250 
Q 1534 4250 1286 3958 
Q 1038 3666 1038 3163 
Q 1038 2656 1286 2365 
Q 1534 2075 1959 2075 
z
" transform="scale(0.015625)"/>
      </defs>
      <use xlink:href="#DejaVuSans-41"/>
      <use xlink:href="#DejaVuSans-53" x="68.408203"/>
      <use xlink:href="#DejaVuSans-39" x="131.884766"/>
      <use xlink:href="#DejaVuSans-39" x="195.507812"/>
      <use xlink:href="#DejaVuSans-37" x="259.130859"/>
      <use xlink:href="#DejaVuSans-36" x="322.753906"/>
     </g>
    </g>
    <g id="line2d_23">
     <path d="M 490.998198 74.811177 
L 500.998198 74.811177 
L 510.998198 74.811177 
" style="fill: none; stroke: #9467bd; stroke-width: 1.5; stroke-linecap: square"/>
    </g>
    <g id="text_13">
     <!-- AS9318 -->
     <g transform="translate(518.998198 78.311177) scale(0.1 -0.1)">
      <use xlink:href="#DejaVuSans-41"/>
      <use xlink:href="#DejaVuSans-53" x="68.408203"/>
      <use xlink:href="#DejaVuSans-39" x="131.884766"/>
      <use xlink:href="#DejaVuSans-33" x="195.507812"/>
      <use xlink:href="#DejaVuSans-31" x="259.130859"/>
      <use xlink:href="#DejaVuSans-38" x="322.753906"/>
     </g>
    </g>
    <g id="line2d_24">
     <path d="M 490.998198 89.489302 
L 500.998198 89.489302 
L 510.998198 89.489302 
" style="fill: none; stroke: #8c564b; stroke-width: 1.5; stroke-linecap: square"/>
    </g>
    <g id="text_14">
     <!-- AS9457 -->
     <g transform="translate(518.998198 92.989302) scale(0.1 -0.1)">
      <use xlink:href="#DejaVuSans-41"/>
      <use xlink:href="#DejaVuSans-53" x="68.408203"/>
      <use xlink:href="#DejaVuSans-39" x="131.884766"/>
      <use xlink:href="#DejaVuSans-34" x="195.507812"/>
      <use xlink:href="#DejaVuSans-35" x="259.130859"/>
      <use xlink:href="#DejaVuSans-37" x="322.753906"/>
     </g>
    </g>
    <g id="line2d_25">
     <path d="M 490.998198 104.167427 
L 500.998198 104.167427 
L 510.998198 104.167427 
" style="fill: none; stroke: #e377c2; stroke-width: 1.5; stroke-linecap: square"/>
    </g>
    <g id="text_15">
     <!-- AS10160 -->
     <g transform="translate(518.998198 107.667427) scale(0.1 -0.1)">
      <use xlink:href="#DejaVuSans-41"/>
      <use xlink:href="#DejaVuSans-53" x="68.408203"/>
      <use xlink:href="#DejaVuSans-31" x="131.884766"/>
      <use xlink:href="#DejaVuSans-30" x="195.507812"/>
      <use xlink:href="#DejaVuSans-31" x="259.130859"/>
      <use xlink:href="#DejaVuSans-36" x="322.753906"/>
      <use xlink:href="#DejaVuSans-30" x="386.376953"/>
     </g>
    </g>
    <g id="line2d_26">
     <path d="M 490.998198 118.845552 
L 500.998198 118.845552 
L 510.998198 118.845552 
" style="fill: none; stroke: #7f7f7f; stroke-width: 1.5; stroke-linecap: square"/>
    </g>
    <g id="text_16">
     <!-- AS3786 -->
     <g transform="translate(518.998198 122.345552) scale(0.1 -0.1)">
      <use xlink:href="#DejaVuSans-41"/>
      <use xlink:href="#DejaVuSans-53" x="68.408203"/>
      <use xlink:href="#DejaVuSans-33" x="131.884766"/>
      <use xlink:href="#DejaVuSans-37" x="195.507812"/>
      <use xlink:href="#DejaVuSans-38" x="259.130859"/>
      <use xlink:href="#DejaVuSans-36" x="322.753906"/>
     </g>
    </g>
    <g id="line2d_27">
     <path d="M 490.998198 133.523677 
L 500.998198 133.523677 
L 510.998198 133.523677 
" style="fill: none; stroke: #bcbd22; stroke-width: 1.5; stroke-linecap: square"/>
    </g>
    <g id="text_17">
     <!-- AS17579 -->
     <g transform="translate(518.998198 137.023677) scale(0.1 -0.1)">
      <use xlink:href="#DejaVuSans-41"/>
      <use xlink:href="#DejaVuSans-53" x="68.408203"/>
      <use xlink:href="#DejaVuSans-31" x="131.884766"/>
      <use xlink:href="#DejaVuSans-37" x="195.507812"/>
      <use xlink:href="#DejaVuSans-35" x="259.130859"/>
      <use xlink:href="#DejaVuSans-37" x="322.753906"/>
      <use xlink:href="#DejaVuSans-39" x="386.376953"/>
     </g>
    </g>
    <g id="line2d_28">
     <path d="M 490.998198 148.201802 
L 500.998198 148.201802 
L 510.998198 148.201802 
" style="fill: none; stroke: #17becf; stroke-width: 1.5; stroke-linecap: square"/>
    </g>
    <g id="text_18">
     <!-- AS4766 -->
     <g transform="translate(518.998198 151.701802) scale(0.1 -0.1)">
      <use xlink:href="#DejaVuSans-41"/>
      <use xlink:href="#DejaVuSans-53" x="68.408203"/>
      <use xlink:href="#DejaVuSans-34" x="131.884766"/>
      <use xlink:href="#DejaVuSans-37" x="195.507812"/>
      <use xlink:href="#DejaVuSans-36" x="259.130859"/>
      <use xlink:href="#DejaVuSans-36" x="322.753906"/>
     </g>
    </g>
    <g id="line2d_29">
     <path d="M 490.998198 162.879927 
L 500.998198 162.879927 
L 510.998198 162.879927 
" style="fill: none; stroke: #1f77b4; stroke-width: 1.5; stroke-linecap: square"/>
    </g>
    <g id="text_19">
     <!-- AS18340 -->
     <g transform="translate(518.998198 166.379927) scale(0.1 -0.1)">
      <use xlink:href="#DejaVuSans-41"/>
      <use xlink:href="#DejaVuSans-53" x="68.408203"/>
      <use xlink:href="#DejaVuSans-31" x="131.884766"/>
      <use xlink:href="#DejaVuSans-38" x="195.507812"/>
      <use xlink:href="#DejaVuSans-33" x="259.130859"/>
      <use xlink:href="#DejaVuSans-34" x="322.753906"/>
      <use xlink:href="#DejaVuSans-30" x="386.376953"/>
     </g>
    </g>
   </g>
  </g>
 </g>
 <defs>
  <clipPath id="p55e023c66c">
   <rect x="42.765865" y="3.00024" width="530.233895" height="265.321395"/>
  </clipPath>
 </defs>
</svg>
